<?xml version="1.0" standalone="no"?>
<!DOCTYPE svg PUBLIC "-//W3C//DTD SVG 1.1//EN" "http://www.w3.org/Graphics/SVG/1.1/DTD/svg11.dtd">
<svg width="129" height="51" viewBox="0 -51 129 51" xmlns="http://www.w3.org/2000/svg" version="1.1">
<title>OpenSCAD Model</title>
<path d="
M 128.5,-50.5 L 0,-50.5 L 0,-0 L 128.5,-0 z
M 28.5121,-0.286484 L 28.1994,-0.329987 L 27.8822,-0.421082 L 27.5813,-0.5569 L 27.3032,-0.73465 L 27.0536,-0.950577
 L 26.8463,-1.18872 L 26.6668,-1.46573 L 26.5291,-1.7657 L 26.436,-2.08238 L 26.3895,-2.40915 L 26.384,-47.96
 L 26.3885,-48.1035 L 26.433,-48.4306 L 26.5241,-48.7478 L 26.6599,-49.0487 L 26.8376,-49.3268 L 27.0536,-49.5764
 L 27.2917,-49.7838 L 27.5687,-49.9632 L 27.8687,-50.101 L 28.1854,-50.194 L 28.5121,-50.2405 L 36.29,-50.246
 L 36.3967,-50.2426 L 48.99,-50.246 L 49.1335,-50.2415 L 49.4606,-50.197 L 49.7778,-50.1059 L 50.0787,-49.9701
 L 50.3568,-49.7924 L 50.6064,-49.5764 L 50.8137,-49.3383 L 50.9932,-49.0613 L 51.1309,-48.7613 L 51.224,-48.4446
 L 51.2705,-48.1179 L 51.276,-27.967 L 51.2715,-27.8235 L 51.227,-27.4964 L 51.1359,-27.1792 L 51.0001,-26.8783
 L 50.8224,-26.6002 L 50.6064,-26.3506 L 50.3683,-26.1433 L 50.0913,-25.9638 L 49.7913,-25.8261 L 49.4746,-25.733
 L 49.1479,-25.6865 L 38.5732,-25.6865 L 38.576,-2.56702 L 38.5715,-2.42349 L 38.527,-2.09642 L 38.4359,-1.77917
 L 38.3001,-1.47835 L 38.1224,-1.20021 L 37.9064,-0.950577 L 37.6683,-0.743271 L 37.3913,-0.563782 L 37.0913,-0.426071
 L 36.7746,-0.332993 L 36.4479,-0.286484 z
M 36.446,-47.331 L 36.2394,-47.4903 L 36.1255,-47.6743 L 36.0812,-47.9083 L 36.1395,-48.2205 L 36.3149,-48.4413
 L 36.6108,-48.5769 L 37.0657,-48.5778 L 37.3553,-48.4474 L 37.522,-48.2357 L 37.5745,-48.0385 L 37.5614,-47.7711
 L 37.4784,-47.5815 L 37.342,-47.446 L 37.214,-47.381 L 37.298,-47.138 L 37.4881,-47.2415 L 37.6303,-47.3832
 L 37.7253,-47.5559 L 37.79,-47.9305 L 37.74,-48.2869 L 37.6041,-48.5424 L 37.3864,-48.7299 L 37.0833,-48.839
 L 36.7499,-48.8575 L 36.4608,-48.8068 L 36.2426,-48.7056 L 36.0738,-48.558 L 35.9592,-48.3787 L 35.9284,-48.3037
 L 35.8701,-47.9214 L 35.9106,-47.6385 L 36.011,-47.4161 L 36.155,-47.2486 L 36.346,-47.121 z
M 48.78,-48.516 L 49.451,-48.516 L 49.451,-47.401 L 49.658,-47.401 L 49.658,-48.516 L 50.28,-48.516
 L 50.28,-47.319 L 50.49,-47.319 L 50.49,-48.772 L 48.57,-48.772 L 48.57,-47.264 L 48.78,-47.264
 z
M 49.6871,-45.8608 L 49.8849,-45.9308 L 50.0227,-46.1399 L 50.0407,-46.3588 L 50.006,-46.5316 L 49.8909,-46.6951
 L 49.768,-46.781 L 49.768,-46.785 L 50.042,-46.796 L 50.0382,-47.0235 L 49.7401,-47.016 L 48.57,-47.016
 L 48.57,-46.774 L 49.5538,-46.7594 L 49.7043,-46.6971 L 49.8172,-46.5699 L 49.8542,-46.4225 L 49.82,-46.212
 L 49.741,-46.1367 L 49.5245,-46.0936 L 48.57,-46.093 L 48.57,-45.85 z
M 37.0962,-45.1019 L 37.3272,-45.1783 L 37.5408,-45.3261 L 37.7085,-45.5733 L 37.7813,-45.8501 L 37.7658,-46.2552
 L 37.6556,-46.5393 L 37.462,-46.7506 L 37.1975,-46.8822 L 36.8287,-46.9306 L 36.5178,-46.8926 L 36.2787,-46.7968
 L 36.1052,-46.6625 L 35.977,-46.4849 L 35.9028,-46.2887 L 35.8709,-45.9564 L 35.9428,-45.6046 L 36.0707,-45.391
 L 36.2389,-45.24 L 36.4875,-45.125 L 36.7919,-45.0783 z
M 36.4431,-45.4089 L 36.2155,-45.5731 L 36.1391,-45.6941 L 36.0786,-46.0398 L 36.1506,-46.3288 L 36.3409,-46.5379
 L 36.6597,-46.6568 L 37.1154,-46.6364 L 37.385,-46.4956 L 37.5358,-46.2735 L 37.5745,-45.9012 L 37.479,-45.6241
 L 37.3083,-45.4581 L 37.147,-45.3831 L 36.8435,-45.3396 z
M 32.8741,-42.1806 L 33.197,-42.2581 L 33.5054,-42.3814 L 33.7928,-42.5477 L 34.0533,-42.7537 L 34.2814,-42.9951
 L 34.4723,-43.2668 L 34.6221,-43.5632 L 34.7277,-43.878 L 34.7869,-44.2048 L 34.7989,-44.5222 L 34.7645,-44.8526
 L 34.6874,-45.1608 L 34.5623,-45.4684 L 34.3941,-45.7547 L 34.1963,-46.0033 L 33.9549,-46.2314 L 33.6832,-46.4223
 L 33.3868,-46.5722 L 33.086,-46.6741 L 32.7596,-46.7353 L 32.4422,-46.7493 L 32.1117,-46.717 L 31.803,-46.6419
 L 31.4946,-46.5186 L 31.2072,-46.3523 L 30.9574,-46.156 L 30.7278,-45.9161 L 30.5427,-45.6579 L 30.3892,-45.3634
 L 30.2796,-45.0499 L 30.2181,-44.7383 L 30.2004,-44.4067 L 30.2283,-44.0902 L 30.3038,-43.7668 L 30.4251,-43.4577
 L 30.5896,-43.1692 L 30.794,-42.9074 L 31.0339,-42.6778 L 31.2921,-42.4927 L 31.5865,-42.3392 L 31.9001,-42.2296
 L 32.2117,-42.1681 L 32.5434,-42.1504 z
M 50.042,-44.5069 L 49.079,-44.8739 L 48.919,-44.9329 L 48.759,-44.9849 L 49.082,-45.0879 L 50.042,-45.4439
 L 50.042,-45.7019 L 48.57,-45.1269 L 48.57,-44.8409 L 50.042,-44.2499 z
M 37.79,-43.4398 L 36.14,-43.4238 L 37.79,-44.4458 L 37.79,-44.7438 L 35.87,-44.7438 L 35.87,-44.5158
 L 37.149,-44.5158 L 37.377,-44.5228 L 37.51,-44.5288 L 35.87,-43.5178 L 35.87,-43.2088 L 37.79,-43.2088
 z
M 49.5343,-42.973 L 49.7093,-43.0233 L 49.8353,-43.0962 L 49.9269,-43.1891 L 49.9918,-43.3055 L 50.033,-43.4632
 L 50.0087,-43.8373 L 49.8715,-44.0658 L 49.6214,-44.2103 L 49.1337,-44.2396 L 48.8213,-44.1316 L 48.6454,-43.9377
 L 48.631,-43.9084 L 48.5701,-43.5745 L 48.6117,-43.3002 L 48.7051,-43.1302 L 48.8471,-43.0171 L 48.897,-42.9942
 L 48.954,-43.2062 L 48.8117,-43.3292 L 48.7611,-43.4667 L 48.7578,-43.6733 L 48.8138,-43.8153 L 48.9509,-43.9317
 L 49.1488,-43.9892 L 49.281,-43.9972 L 49.281,-42.9552 z
M 49.466,-43.9942 L 49.6582,-43.951 L 49.8077,-43.8198 L 49.8591,-43.6669 L 49.8414,-43.4481 L 49.771,-43.3263
 L 49.645,-43.2447 L 49.466,-43.2052 z
M 37.79,-42.9673 L 37.58,-42.9673 L 37.58,-42.3233 L 35.87,-42.3233 L 35.87,-42.0673 L 37.58,-42.0673
 L 37.58,-41.4273 L 37.79,-41.4273 z
M 50.554,-42.6791 L 48.57,-42.6791 L 48.57,-42.4371 L 50.554,-42.4371 z
M 49.6256,-40.8934 L 49.8742,-41.0246 L 50.0054,-41.2402 L 50.042,-41.5064 L 50.0235,-41.6975 L 49.9751,-41.8414
 L 49.9019,-41.9527 L 49.802,-42.0403 L 49.667,-42.107 L 49.4818,-42.1498 L 49.141,-42.1505 L 48.8201,-42.0428
 L 48.6462,-41.8574 L 48.63,-41.8252 L 48.5705,-41.4792 L 48.6471,-41.1614 L 48.8148,-40.976 L 49.12,-40.8687
 z
M 49.0065,-41.1473 L 48.8755,-41.2105 L 48.7827,-41.3296 L 48.7806,-41.3346 L 48.7505,-41.5577 L 48.7986,-41.7188
 L 48.8824,-41.8078 L 49.0602,-41.8821 L 49.427,-41.9017 L 49.6445,-41.8557 L 49.7796,-41.7649 L 49.8465,-41.6369
 L 49.8597,-41.4381 L 49.8162,-41.2932 L 49.6252,-41.1504 L 49.3655,-41.1113 z
M 49.5992,-39.3859 L 49.8876,-39.5127 L 50.0185,-39.7194 L 50.0295,-40.042 L 49.9442,-40.232 L 49.789,-40.3503
 L 49.789,-40.3553 L 50.042,-40.3683 L 50.042,-40.6033 L 49.7562,-40.5953 L 47.994,-40.5953 L 47.994,-40.3533
 L 48.817,-40.3583 L 48.817,-40.3523 L 48.6622,-40.2285 L 48.5797,-40.0237 L 48.573,-39.8322 L 48.6041,-39.6928
 L 48.6647,-39.5832 L 48.7557,-39.4955 L 48.8924,-39.4238 L 49.0958,-39.3748 z
M 48.9054,-39.682 L 48.8114,-39.7572 L 48.7725,-39.8251 L 48.7496,-39.9912 L 48.81,-40.1913 L 48.9183,-40.2844
 L 49.1282,-40.344 L 49.607,-40.3132 L 49.7748,-40.2125 L 49.8318,-40.1165 L 49.8534,-39.9215 L 49.8124,-39.7846
 L 49.73,-39.6996 L 49.5431,-39.6328 z
M 49.5343,-37.891 L 49.7093,-37.9412 L 49.8353,-38.0141 L 49.9269,-38.1071 L 49.9918,-38.2234 L 50.033,-38.3812
 L 50.0087,-38.7553 L 49.8715,-38.9837 L 49.6214,-39.1282 L 49.1337,-39.1575 L 48.8213,-39.0495 L 48.6454,-38.8556
 L 48.631,-38.8263 L 48.5701,-38.4925 L 48.6117,-38.2182 L 48.7051,-38.0482 L 48.8471,-37.935 L 48.897,-37.9121
 L 48.954,-38.1241 L 48.8117,-38.2472 L 48.7611,-38.3847 L 48.7578,-38.5913 L 48.8138,-38.7333 L 48.9509,-38.8496
 L 49.1488,-38.9071 L 49.281,-38.9151 L 49.281,-37.8731 z
M 49.466,-38.9121 L 49.6582,-38.869 L 49.8077,-38.7377 L 49.8591,-38.5849 L 49.8414,-38.3661 L 49.771,-38.2442
 L 49.645,-38.1626 L 49.466,-38.1231 z
M 37.79,-35.219 L 37.79,-35.511 L 35.87,-36.295 L 35.87,-36.029 L 36.438,-35.808 L 36.438,-34.931
 L 35.87,-34.712 L 35.87,-34.449 z
M 36.638,-35.728 L 37.559,-35.381 L 37.597,-35.369 L 37.271,-35.256 L 36.638,-35.009 z
M 45.5692,-28.6721 L 45.8952,-28.729 L 46.2133,-28.8203 L 46.5199,-28.945 L 46.8114,-29.1017 L 47.0846,-29.2886
 L 47.3362,-29.5036 L 47.5636,-29.7441 L 47.7639,-30.0076 L 47.9351,-30.2908 L 48.0751,-30.5907 L 48.1823,-30.9039
 L 48.2555,-31.2266 L 48.2939,-31.5554 L 48.297,-31.8863 L 48.2648,-32.2157 L 48.1977,-32.5398 L 48.0964,-32.8549
 L 47.9621,-33.1574 L 47.7963,-33.4438 L 47.601,-33.711 L 47.3782,-33.9558 L 47.1306,-34.1754 L 46.8611,-34.3674
 L 46.5725,-34.5296 L 46.2684,-34.6601 L 45.9521,-34.7574 L 45.6271,-34.8204 L 45.2974,-34.8485 L 44.9665,-34.8412
 L 44.6383,-34.7987 L 44.3164,-34.7214 L 44.0047,-34.6103 L 43.7066,-34.4666 L 43.4254,-34.2919 L 43.1646,-34.0882
 L 42.9269,-33.8579 L 42.7151,-33.6035 L 42.5317,-33.328 L 42.3787,-33.0346 L 42.2578,-32.7265 L 42.1705,-32.4072
 L 42.1177,-32.0805 L 42.1,-31.75 L 42.1177,-31.4195 L 42.1705,-31.0928 L 42.2578,-30.7735 L 42.3787,-30.4654
 L 42.5317,-30.172 L 42.7151,-29.8965 L 42.9269,-29.6422 L 43.1646,-29.4118 L 43.4254,-29.2082 L 43.7066,-29.0335
 L 44.0047,-28.8897 L 44.3164,-28.7786 L 44.6383,-28.7013 L 44.9083,-28.6638 L 45.239,-28.6503 z
M 37.79,-34.6453 L 37.58,-34.6453 L 37.58,-34.0013 L 35.87,-34.0013 L 35.87,-33.7453 L 37.58,-33.7453
 L 37.58,-33.1053 L 37.79,-33.1053 z
M 32.8598,-29.4783 L 33.1832,-29.5538 L 33.4923,-29.6751 L 33.7808,-29.8396 L 34.0426,-30.044 L 34.2722,-30.2839
 L 34.4573,-30.5421 L 34.6108,-30.8366 L 34.7204,-31.1501 L 34.7819,-31.4617 L 34.7996,-31.7934 L 34.7717,-32.1098
 L 34.6962,-32.4332 L 34.5749,-32.7424 L 34.4104,-33.0308 L 34.206,-33.2926 L 33.9661,-33.5222 L 33.7079,-33.7073
 L 33.4134,-33.8608 L 33.0999,-33.9704 L 32.7883,-34.0319 L 32.4566,-34.0496 L 32.1402,-34.0217 L 31.8168,-33.9462
 L 31.5076,-33.8249 L 31.2192,-33.6604 L 30.9574,-33.456 L 30.7278,-33.2161 L 30.5427,-32.9579 L 30.3892,-32.6635
 L 30.2796,-32.3499 L 30.2181,-32.0383 L 30.2004,-31.7066 L 30.2283,-31.3902 L 30.3038,-31.0668 L 30.4251,-30.7577
 L 30.5896,-30.4692 L 30.794,-30.2074 L 31.0339,-29.9778 L 31.2921,-29.7927 L 31.5865,-29.6392 L 31.9001,-29.5296
 L 32.2117,-29.4681 L 32.5434,-29.4504 z
M 37.79,-33.0037 L 37.58,-33.0037 L 37.58,-32.3597 L 35.87,-32.3597 L 35.87,-32.1037 L 37.58,-32.1037
 L 37.58,-31.4637 L 37.79,-31.4637 z
M 37.79,-22.519 L 37.79,-22.811 L 35.87,-23.595 L 35.87,-23.329 L 36.438,-23.108 L 36.438,-22.231
 L 35.87,-22.012 L 35.87,-21.749 z
M 36.638,-23.028 L 37.559,-22.681 L 37.597,-22.669 L 37.271,-22.556 L 36.638,-22.309 z
M 36.08,-21.3241 L 37.79,-21.3241 L 37.79,-21.58 L 35.87,-21.58 L 35.87,-20.3631 L 36.08,-20.3631
 z
M 32.8598,-16.7783 L 33.1694,-16.8496 L 33.4793,-16.9689 L 33.7688,-17.1316 L 34.021,-17.3248 L 34.2536,-17.5618
 L 34.4496,-17.8298 L 34.5992,-18.1101 L 34.7127,-18.4222 L 34.7781,-18.7331 L 34.7999,-19.0645 L 34.7739,-19.3955
 L 34.7046,-19.7056 L 34.5872,-20.0162 L 34.4263,-20.3067 L 34.2253,-20.571 L 33.9882,-20.8036 L 33.7202,-20.9997
 L 33.4267,-21.1551 L 33.1139,-21.2666 L 32.7883,-21.3319 L 32.4566,-21.3496 L 32.1259,-21.3194 L 31.803,-21.2419
 L 31.4946,-21.1186 L 31.2072,-20.9523 L 30.9467,-20.7463 L 30.7186,-20.5049 L 30.5277,-20.2332 L 30.3778,-19.9368
 L 30.2722,-19.622 L 30.2131,-19.2952 L 30.2011,-18.9778 L 30.2355,-18.6475 L 30.3126,-18.3393 L 30.4377,-18.0317
 L 30.6059,-17.7453 L 30.8037,-17.4967 L 31.0451,-17.2686 L 31.3168,-17.0777 L 31.6131,-16.9279 L 31.914,-16.8259
 L 32.2117,-16.7681 L 32.5289,-16.7502 z
M 37.79,-20.4501 L 37.58,-20.4501 L 37.58,-19.8062 L 35.87,-19.8062 L 35.87,-19.5501 L 37.58,-19.5501
 L 37.58,-18.9101 L 37.79,-18.9101 z
M 37.79,-9.39702 L 36.958,-9.39702 L 36.958,-10.419 L 37.79,-10.419 L 37.79,-10.675 L 35.87,-10.675
 L 35.87,-10.419 L 36.743,-10.419 L 36.743,-9.39702 L 35.87,-9.39702 L 35.87,-9.14001 L 37.79,-9.14001
 z
M 37.0962,-7.00192 L 37.3272,-7.07826 L 37.5408,-7.22614 L 37.7085,-7.47334 L 37.7813,-7.75012 L 37.7658,-8.15524
 L 37.6556,-8.43932 L 37.462,-8.65059 L 37.1975,-8.7822 L 36.8287,-8.83057 L 36.5178,-8.79265 L 36.2787,-8.69684
 L 36.1052,-8.56255 L 35.977,-8.38487 L 35.9028,-8.18875 L 35.8709,-7.8564 L 35.9428,-7.50465 L 36.0707,-7.29097
 L 36.2389,-7.13998 L 36.4875,-7.02502 L 36.7919,-6.97829 z
M 36.4431,-7.30893 L 36.2155,-7.47308 L 36.1391,-7.5941 L 36.0786,-7.93983 L 36.1506,-8.22884 L 36.3409,-8.43788
 L 36.6597,-8.55678 L 37.1154,-8.53644 L 37.385,-8.39558 L 37.5358,-8.17352 L 37.5745,-7.80122 L 37.479,-7.52412
 L 37.3083,-7.35812 L 37.147,-7.28308 L 36.8435,-7.23959 z
M 32.8598,-4.07832 L 33.1694,-4.14957 L 33.4662,-4.26279 L 33.7567,-4.42369 L 34.0101,-4.61523 L 34.2442,-4.85078
 L 34.4419,-5.1176 L 34.5992,-5.41011 L 34.7127,-5.72221 L 34.7781,-6.0331 L 34.7999,-6.36446 L 34.7739,-6.69553
 L 34.7046,-7.00555 L 34.5872,-7.31621 L 34.4263,-7.60672 L 34.2348,-7.86015 L 34.0101,-8.08479 L 33.7446,-8.28418
 L 33.4662,-8.43723 L 33.1555,-8.55461 L 32.8312,-8.62604 L 32.5,-8.65001 L 32.1688,-8.62604 L 31.8445,-8.55461
 L 31.5338,-8.43723 L 31.2433,-8.27632 L 30.9898,-8.08479 L 30.7558,-7.84923 L 30.558,-7.58241 L 30.4008,-7.2899
 L 30.2873,-6.9778 L 30.2219,-6.66693 L 30.2,-6.33556 L 30.2261,-6.00449 L 30.2954,-5.69446 L 30.4128,-5.3838
 L 30.5658,-5.10542 L 30.7558,-4.85078 L 30.9898,-4.61523 L 31.2554,-4.41583 L 31.5338,-4.26279 L 31.8445,-4.1454
 L 32.1688,-4.07399 L 32.2117,-4.06815 L 32.5289,-4.05019 z
M 36.08,-6.38577 L 37.79,-6.38577 L 37.79,-6.64177 L 35.87,-6.64177 L 35.87,-5.42477 L 36.08,-5.42477
 z
M 37.2819,-3.59892 L 37.5091,-3.7457 L 37.6759,-3.96953 L 37.7742,-4.29352 L 37.79,-4.52365 L 37.79,-5.14865
 L 35.87,-5.14865 L 35.8893,-4.23048 L 35.9649,-4.00247 L 36.0863,-3.82089 L 36.2488,-3.68156 L 36.551,-3.55385
 L 36.9612,-3.52486 z
M 36.5514,-3.81917 L 36.3485,-3.91437 L 36.1923,-4.06908 L 36.1,-4.27325 L 36.076,-4.46835 L 36.076,-4.89265
 L 37.584,-4.89265 L 37.552,-4.25685 L 37.4328,-4.01311 L 37.22,-3.84886 L 36.8725,-3.77884 z
M 58.0775,-47.0654 L 57.8289,-47.1804 L 57.6607,-47.3314 L 57.5329,-47.5451 L 57.4609,-47.8968 L 57.4928,-48.2292
 L 57.567,-48.4253 L 57.6952,-48.603 L 57.8687,-48.7373 L 58.1078,-48.8331 L 58.4187,-48.871 L 58.7875,-48.8226
 L 59.052,-48.691 L 59.2457,-48.4797 L 59.3559,-48.1957 L 59.3713,-47.7905 L 59.2985,-47.5138 L 59.1309,-47.2666
 L 58.9173,-47.1187 L 58.6862,-47.0423 L 58.382,-47.0187 z
M 58.737,-47.3235 L 58.8983,-47.3985 L 59.069,-47.5645 L 59.1645,-47.8416 L 59.1258,-48.2139 L 58.975,-48.436
 L 58.7054,-48.5769 L 58.2497,-48.5972 L 57.931,-48.4783 L 57.7406,-48.2693 L 57.6686,-47.9803 L 57.7291,-47.6345
 L 57.8055,-47.5135 L 58.0332,-47.3493 L 58.4335,-47.28 z
M 108.545,-47.2486 L 108.401,-47.4161 L 108.301,-47.6385 L 108.26,-47.9214 L 108.318,-48.3037 L 108.349,-48.3787
 L 108.464,-48.558 L 108.633,-48.7056 L 108.851,-48.8068 L 109.14,-48.8575 L 109.473,-48.839 L 109.776,-48.7299
 L 109.994,-48.5424 L 110.13,-48.2869 L 110.18,-47.9305 L 110.115,-47.5559 L 110.02,-47.3832 L 109.878,-47.2415
 L 109.688,-47.138 L 109.604,-47.381 L 109.732,-47.446 L 109.868,-47.5815 L 109.951,-47.7711 L 109.964,-48.0385
 L 109.912,-48.2357 L 109.745,-48.4474 L 109.456,-48.5778 L 109.001,-48.5769 L 108.705,-48.4413 L 108.53,-48.2205
 L 108.471,-47.9083 L 108.516,-47.6743 L 108.629,-47.4903 L 108.836,-47.331 L 108.736,-47.121 z
M 82.86,-47.24 L 82.86,-47.549 L 84.5,-48.56 L 84.367,-48.554 L 84.139,-48.547 L 82.86,-48.547
 L 82.86,-48.775 L 84.78,-48.775 L 84.78,-48.477 L 83.13,-47.455 L 84.78,-47.471 L 84.78,-47.24
 z
M 70.16,-47.264 L 70.16,-48.772 L 72.08,-48.772 L 72.08,-47.319 L 71.87,-47.319 L 71.87,-48.516
 L 71.248,-48.516 L 71.248,-47.401 L 71.041,-47.401 L 71.041,-48.516 L 70.37,-48.516 L 70.37,-47.264
 z
M 95.56,-47.264 L 95.56,-48.772 L 97.48,-48.772 L 97.48,-47.319 L 97.27,-47.319 L 97.27,-48.516
 L 96.648,-48.516 L 96.648,-47.401 L 96.441,-47.401 L 96.441,-48.516 L 95.77,-48.516 L 95.77,-47.264
 z
M 115.57,-41.393 L 118.054,-42.373 L 118.054,-46.283 L 115.57,-47.269 L 115.57,-48.476 L 124.146,-44.974
 L 124.146,-43.651 L 115.57,-40.204 z
M 121.807,-43.822 L 123.269,-44.328 L 123.098,-44.383 L 118.962,-45.929 L 118.962,-42.72 z
M 108.26,-45.9986 L 108.26,-46.2646 L 110.18,-47.0476 L 110.18,-46.7776 L 108.826,-46.2456 L 108.486,-46.1306
 L 108.826,-46.0156 L 110.18,-45.4856 L 110.18,-45.2156 z
M 70.16,-46.093 L 71.1145,-46.0936 L 71.331,-46.1367 L 71.41,-46.212 L 71.4442,-46.4225 L 71.4072,-46.5699
 L 71.2943,-46.6971 L 71.1438,-46.7594 L 70.16,-46.774 L 70.16,-47.016 L 71.3301,-47.016 L 71.6282,-47.0235
 L 71.632,-46.796 L 71.358,-46.785 L 71.358,-46.781 L 71.4809,-46.6951 L 71.596,-46.5316 L 71.6307,-46.3588
 L 71.6127,-46.1399 L 71.4749,-45.9308 L 71.2771,-45.8608 L 70.16,-45.85 z
M 95.56,-46.093 L 96.5145,-46.0936 L 96.731,-46.1367 L 96.81,-46.212 L 96.8442,-46.4225 L 96.8072,-46.5699
 L 96.6943,-46.6971 L 96.5438,-46.7594 L 95.56,-46.774 L 95.56,-47.016 L 96.7301,-47.016 L 97.0282,-47.0235
 L 97.032,-46.796 L 96.758,-46.785 L 96.758,-46.781 L 96.8809,-46.6951 L 96.996,-46.5316 L 97.0307,-46.3588
 L 97.0127,-46.1399 L 96.8749,-45.9308 L 96.6771,-45.8608 L 95.56,-45.85 z
M 83.1048,-45.7592 L 82.9371,-45.9446 L 82.8605,-46.2624 L 82.92,-46.6084 L 82.9362,-46.6406 L 83.1101,-46.826
 L 83.431,-46.9337 L 83.7718,-46.933 L 83.957,-46.8902 L 84.092,-46.8235 L 84.1919,-46.7359 L 84.2651,-46.6246
 L 84.3135,-46.4807 L 84.332,-46.2896 L 84.2954,-46.0234 L 84.1642,-45.8078 L 83.9156,-45.6766 L 83.41,-45.6519
 z
M 83.9152,-45.9336 L 84.1062,-46.0764 L 84.1497,-46.2213 L 84.1365,-46.4201 L 84.0697,-46.5481 L 83.9345,-46.6389
 L 83.717,-46.6849 L 83.3502,-46.6653 L 83.1724,-46.591 L 83.0886,-46.502 L 83.0405,-46.3409 L 83.0706,-46.1178
 L 83.0727,-46.1128 L 83.1656,-45.9937 L 83.2965,-45.9305 L 83.6555,-45.8945 z
M 57.46,-45.7842 L 57.736,-45.7952 L 57.736,-45.7992 L 57.647,-45.8566 L 57.509,-46.0183 L 57.4656,-46.1732
 L 57.4944,-46.489 L 57.5052,-46.5153 L 57.643,-46.6658 L 57.8007,-46.7173 L 58.932,-46.7302 L 58.932,-46.4872
 L 58.0125,-46.4872 L 57.7851,-46.4554 L 57.681,-46.3682 L 57.6471,-46.1768 L 57.6848,-46.0107 L 57.7895,-45.8897
 L 57.9651,-45.8175 L 58.932,-45.8062 L 58.932,-45.5642 L 57.7699,-45.5642 L 57.4638,-45.5567 z
M 70.16,-44.8409 L 70.16,-45.1269 L 71.632,-45.7019 L 71.632,-45.4439 L 70.672,-45.0879 L 70.349,-44.9849
 L 70.509,-44.9329 L 70.669,-44.8739 L 71.632,-44.5069 L 71.632,-44.2499 z
M 95.582,-44.1759 L 95.5618,-44.3089 L 95.5763,-44.4749 L 95.6477,-44.5719 L 95.858,-44.6289 L 95.858,-44.6369
 L 95.7641,-44.6991 L 95.6249,-44.8578 L 95.5622,-45.0911 L 95.5959,-45.3672 L 95.6355,-45.4408 L 95.756,-45.5449
 L 95.9685,-45.5947 L 96.1854,-45.5553 L 96.2985,-45.4751 L 96.3897,-45.3296 L 96.456,-44.6369 L 96.532,-44.6369
 L 96.634,-44.6454 L 96.7631,-44.7025 L 96.8318,-44.8173 L 96.8439,-45.0385 L 96.78,-45.214 L 96.648,-45.2769
 L 96.669,-45.5299 L 96.74,-45.5122 L 96.8668,-45.4408 L 96.9577,-45.3238 L 97.0199,-45.1205 L 97.0219,-44.7989
 L 96.963,-44.6103 L 96.8548,-44.4812 L 96.7222,-44.4147 L 95.9326,-44.3919 L 95.8133,-44.3783 L 95.7389,-44.3275
 L 95.733,-44.1759 z
M 96.282,-44.9029 L 96.2475,-45.1643 L 96.1582,-45.2935 L 96.08,-45.333 L 95.9101,-45.3388 L 95.7849,-45.2602
 L 95.7466,-45.1657 L 95.7813,-44.8964 L 95.7836,-44.8913 L 95.8899,-44.7478 L 96.0342,-44.6617 L 96.287,-44.6369
 z
M 82.86,-45.1295 L 82.86,-45.3715 L 84.332,-45.3715 L 84.332,-45.1295 z
M 84.613,-45.1295 L 84.613,-45.3715 L 84.844,-45.3715 L 84.844,-45.1295 z
M 57.492,-44.6671 L 57.4613,-44.8627 L 57.4931,-45.0675 L 57.5295,-45.1183 L 57.6544,-45.1877 L 58.756,-45.2031
 L 58.756,-45.3711 L 58.932,-45.3711 L 58.932,-45.1941 L 59.252,-45.1231 L 59.252,-44.9611 L 58.932,-44.9611
 L 58.932,-44.6911 L 58.756,-44.6911 L 58.756,-44.9611 L 57.8393,-44.9611 L 57.7362,-44.9484 L 57.6698,-44.8965
 L 57.67,-44.6671 z
M 83.0819,-43.7123 L 82.9273,-43.8948 L 82.8646,-44.1532 L 82.8915,-44.5509 L 82.9476,-44.6914 L 83.0682,-44.8214
 L 83.228,-44.8898 L 83.27,-44.6768 L 83.202,-44.6496 L 83.116,-44.5734 L 83.0503,-44.3783 L 83.0829,-44.0157
 L 83.1429,-43.9355 L 83.2754,-43.8982 L 83.4003,-43.9627 L 83.5886,-44.538 L 83.7283,-44.7589 L 83.9392,-44.8307
 L 84.0976,-44.7979 L 84.25,-44.6544 L 84.3159,-44.4625 L 84.3181,-44.0802 L 84.2523,-43.8811 L 84.1581,-43.7686
 L 83.976,-43.6878 L 83.949,-43.9058 L 84.0482,-43.9559 L 84.1275,-44.0917 L 84.1324,-44.4318 L 84.0569,-44.5645
 L 83.9283,-44.5928 L 83.8316,-44.5355 L 83.5928,-43.8416 L 83.4043,-43.6816 L 83.2272,-43.6647 z
M 57.7824,-43.3095 L 57.6458,-43.3813 L 57.5548,-43.4689 L 57.4941,-43.5785 L 57.463,-43.718 L 57.4697,-43.9094
 L 57.5522,-44.1142 L 57.707,-44.238 L 57.707,-44.244 L 56.884,-44.239 L 56.884,-44.481 L 58.6463,-44.481
 L 58.932,-44.489 L 58.932,-44.254 L 58.679,-44.241 L 58.679,-44.236 L 58.8342,-44.1177 L 58.9195,-43.9277
 L 58.9085,-43.6051 L 58.7776,-43.3984 L 58.4892,-43.2716 L 57.9858,-43.2605 z
M 58.62,-43.5853 L 58.7024,-43.6703 L 58.7434,-43.8072 L 58.7218,-44.0022 L 58.6648,-44.0983 L 58.4971,-44.199
 L 58.0182,-44.2297 L 57.8083,-44.1702 L 57.7,-44.077 L 57.6397,-43.877 L 57.6625,-43.7109 L 57.7014,-43.643
 L 57.7955,-43.5677 L 58.4331,-43.5186 z
M 70.871,-43.9972 L 70.7388,-43.9892 L 70.5409,-43.9317 L 70.4038,-43.8153 L 70.3478,-43.6733 L 70.3511,-43.4667
 L 70.4017,-43.3292 L 70.544,-43.2062 L 70.487,-42.9942 L 70.4371,-43.0171 L 70.2951,-43.1302 L 70.2017,-43.3002
 L 70.1601,-43.5745 L 70.2211,-43.9084 L 70.2354,-43.9377 L 70.4113,-44.1316 L 70.7237,-44.2396 L 71.2115,-44.2103
 L 71.4615,-44.0658 L 71.5987,-43.8373 L 71.623,-43.4632 L 71.5818,-43.3055 L 71.5169,-43.1891 L 71.4253,-43.0962
 L 71.2993,-43.0233 L 71.1244,-42.973 L 70.871,-42.9552 z
M 71.235,-43.2447 L 71.361,-43.3263 L 71.4315,-43.4481 L 71.4492,-43.6669 L 71.3977,-43.8198 L 71.2482,-43.951
 L 71.056,-43.9942 L 71.056,-43.2052 z
M 96.0003,-42.8253 L 95.8232,-42.8848 L 95.7068,-42.9625 L 95.6276,-43.0587 L 95.5787,-43.1769 L 95.56,-43.3338
 L 95.5864,-43.5323 L 95.6652,-43.6786 L 95.807,-43.7888 L 95.807,-43.7918 L 95.5715,-43.8033 L 95.56,-44.0388
 L 97.544,-44.0308 L 97.544,-43.7888 L 96.9754,-43.7888 L 96.777,-43.7938 L 96.777,-43.7888 L 96.8205,-43.7652
 L 96.9329,-43.6706 L 97.0158,-43.4921 L 97.0237,-43.2218 L 96.9225,-42.9918 L 96.698,-42.8505 L 96.2796,-42.7969
 z
M 96.6724,-43.1081 L 96.7921,-43.2027 L 96.8377,-43.3144 L 96.8345,-43.5011 L 96.7756,-43.632 L 96.6465,-43.7296
 L 96.0557,-43.7693 L 95.8883,-43.7081 L 95.8005,-43.6268 L 95.7492,-43.5039 L 95.7658,-43.2529 L 95.8215,-43.1709
 L 96.0059,-43.0791 L 96.4219,-43.0551 z
M 83.571,-43.253 L 83.4388,-43.245 L 83.2409,-43.1875 L 83.1038,-43.0712 L 83.0478,-42.9292 L 83.0511,-42.7226
 L 83.1017,-42.5851 L 83.244,-42.462 L 83.187,-42.25 L 83.1371,-42.2729 L 82.9951,-42.3861 L 82.9017,-42.5561
 L 82.8601,-42.8304 L 82.9211,-43.1642 L 82.9354,-43.1935 L 83.1113,-43.3874 L 83.4237,-43.4954 L 83.9115,-43.4661
 L 84.1615,-43.3216 L 84.2987,-43.0932 L 84.323,-42.7191 L 84.2818,-42.5613 L 84.2169,-42.445 L 84.1253,-42.352
 L 83.9993,-42.2791 L 83.8244,-42.2289 L 83.571,-42.211 z
M 83.935,-42.5005 L 84.061,-42.5821 L 84.1315,-42.704 L 84.1492,-42.9228 L 84.0977,-43.0756 L 83.9482,-43.2068
 L 83.756,-43.25 L 83.756,-42.461 z
M 123.6,-39.8283 L 123.531,-39.843 L 123.228,-39.948 L 122.951,-40.1115 L 122.706,-40.3344 L 122.518,-40.5942
 L 122.385,-40.8865 L 122.313,-41.1995 L 122.305,-41.5205 L 122.361,-41.8367 L 122.479,-42.1353 L 122.654,-42.4043
 L 122.88,-42.6328 L 123.147,-42.8117 L 123.444,-42.9336 L 123.759,-42.9938 L 124.081,-42.9898 L 124.394,-42.9217
 L 124.688,-42.7923 L 124.951,-42.6068 L 125.17,-42.3727 L 125.339,-42.0994 L 125.45,-41.7979 L 125.498,-41.4804
 L 125.482,-41.1596 L 125.402,-40.8486 L 125.262,-40.5597 L 125.066,-40.3047 L 124.824,-40.0939 L 124.545,-39.9356
 L 124.239,-39.8364 L 123.92,-39.8001 z
M 57.46,-42.0469 L 57.736,-42.0579 L 57.736,-42.0619 L 57.647,-42.1193 L 57.509,-42.281 L 57.4656,-42.4359
 L 57.4944,-42.7516 L 57.5052,-42.778 L 57.643,-42.9285 L 57.8007,-42.9799 L 58.932,-42.9929 L 58.932,-42.7499
 L 58.0125,-42.7499 L 57.7851,-42.7181 L 57.681,-42.6309 L 57.6471,-42.4395 L 57.6848,-42.2733 L 57.7895,-42.1524
 L 57.9651,-42.0802 L 58.932,-42.0689 L 58.932,-41.8269 L 57.7699,-41.8269 L 57.4638,-41.8194 z
M 4.30019,-39.8283 L 4.26079,-39.8364 L 3.95534,-39.9356 L 3.67587,-40.0939 L 3.43364,-40.3047 L 3.2384,-40.5597
 L 3.09802,-40.8486 L 3.01814,-41.1596 L 3.00255,-41.4904 L 3.0528,-41.8076 L 3.16536,-42.1084 L 3.33574,-42.3806
 L 3.5647,-42.6199 L 3.82919,-42.8021 L 4.12473,-42.9278 L 4.44942,-42.9929 L 4.77057,-42.9909 L 5.08485,-42.9248
 L 5.37959,-42.7972 L 5.64293,-42.6134 L 5.86424,-42.3806 L 6.03462,-42.1084 L 6.1472,-41.8076 L 6.19797,-41.4804
 L 6.18184,-41.1596 L 6.10196,-40.8486 L 5.96158,-40.5597 L 5.76634,-40.3047 L 5.52411,-40.0939 L 5.24464,-39.9356
 L 4.93921,-39.8364 L 4.6201,-39.8001 z
M 70.16,-42.4371 L 70.16,-42.6791 L 72.144,-42.6791 L 72.144,-42.4371 z
M 95.56,-42.2857 L 95.56,-42.5277 L 97.544,-42.5277 L 97.544,-42.2857 z
M 70.4048,-40.976 L 70.2371,-41.1614 L 70.1606,-41.4792 L 70.22,-41.8252 L 70.2362,-41.8574 L 70.4101,-42.0428
 L 70.731,-42.1505 L 71.0718,-42.1498 L 71.257,-42.107 L 71.392,-42.0403 L 71.4919,-41.9527 L 71.5651,-41.8414
 L 71.6135,-41.6975 L 71.632,-41.5064 L 71.5954,-41.2402 L 71.4642,-41.0246 L 71.2156,-40.8934 L 70.71,-40.8687
 z
M 71.2152,-41.1504 L 71.4062,-41.2932 L 71.4497,-41.4381 L 71.4365,-41.6369 L 71.3697,-41.7649 L 71.2345,-41.8557
 L 71.017,-41.9017 L 70.6502,-41.8821 L 70.4724,-41.8078 L 70.3886,-41.7188 L 70.3405,-41.5577 L 70.3706,-41.3346
 L 70.3727,-41.3296 L 70.4656,-41.2105 L 70.5965,-41.1473 L 70.9556,-41.1113 z
M 96.271,-41.754 L 96.1388,-41.746 L 95.9409,-41.6885 L 95.8038,-41.5722 L 95.7478,-41.4302 L 95.7511,-41.2236
 L 95.8017,-41.086 L 95.944,-40.963 L 95.887,-40.751 L 95.8371,-40.7739 L 95.6951,-40.8871 L 95.6017,-41.0571
 L 95.5601,-41.3314 L 95.621,-41.6652 L 95.6354,-41.6945 L 95.8113,-41.8884 L 96.1237,-41.9964 L 96.6115,-41.9671
 L 96.8615,-41.8226 L 96.9987,-41.5942 L 97.023,-41.2201 L 96.9818,-41.0623 L 96.9169,-40.9459 L 96.8253,-40.853
 L 96.6993,-40.7801 L 96.5244,-40.7299 L 96.271,-40.712 z
M 96.635,-41.0015 L 96.761,-41.0831 L 96.8315,-41.205 L 96.8492,-41.4238 L 96.7977,-41.5766 L 96.6482,-41.7078
 L 96.456,-41.751 L 96.456,-40.962 z
M 57.492,-40.9298 L 57.4613,-41.1254 L 57.4931,-41.3302 L 57.5295,-41.381 L 57.6544,-41.4503 L 58.756,-41.4658
 L 58.756,-41.6338 L 58.932,-41.6338 L 58.932,-41.4568 L 59.252,-41.3858 L 59.252,-41.2238 L 58.932,-41.2238
 L 58.932,-40.9538 L 58.756,-40.9538 L 58.756,-41.2238 L 57.8393,-41.2238 L 57.7362,-41.2111 L 57.6698,-41.1592
 L 57.67,-40.9298 z
M 70.4824,-39.4238 L 70.3457,-39.4955 L 70.2548,-39.5832 L 70.1941,-39.6928 L 70.163,-39.8322 L 70.1697,-40.0237
 L 70.2522,-40.2285 L 70.407,-40.3523 L 70.407,-40.3583 L 69.584,-40.3533 L 69.584,-40.5953 L 71.3463,-40.5953
 L 71.632,-40.6033 L 71.632,-40.3683 L 71.379,-40.3553 L 71.379,-40.3503 L 71.5342,-40.232 L 71.6195,-40.042
 L 71.6085,-39.7194 L 71.4776,-39.5127 L 71.1892,-39.3859 L 70.6858,-39.3748 z
M 71.32,-39.6996 L 71.4024,-39.7846 L 71.4434,-39.9215 L 71.4218,-40.1165 L 71.3648,-40.2125 L 71.1971,-40.3132
 L 70.7182,-40.344 L 70.5083,-40.2844 L 70.4,-40.1913 L 70.3397,-39.9912 L 70.3625,-39.8251 L 70.4014,-39.7572
 L 70.4955,-39.682 L 71.1331,-39.6328 z
M 115.588,-37.0061 L 115.553,-37.1436 L 115.464,-37.6754 L 115.45,-38.2918 L 115.463,-38.4049 L 115.501,-38.5801
 L 115.551,-38.7236 L 115.617,-38.8538 L 115.697,-38.9706 L 115.782,-39.0631 L 115.892,-39.1546 L 116.017,-39.2327
 L 116.157,-39.2974 L 116.331,-39.3536 L 116.544,-39.3963 L 116.803,-39.4201 L 121.364,-39.4231 L 121.364,-40.1851
 L 122.162,-40.1851 L 122.162,-39.3801 L 123.634,-39.0581 L 123.634,-38.3261 L 122.162,-38.3261 L 122.162,-37.1161
 L 121.364,-37.1161 L 121.364,-38.3261 L 117.169,-38.3261 L 116.831,-38.2999 L 116.532,-38.191 L 116.393,-38.0326
 L 116.316,-37.7236 L 116.398,-37.0061 z
M 70.871,-38.9151 L 70.7388,-38.9071 L 70.5409,-38.8496 L 70.4038,-38.7333 L 70.3478,-38.5913 L 70.3511,-38.3847
 L 70.4017,-38.2472 L 70.544,-38.1241 L 70.487,-37.9121 L 70.4371,-37.935 L 70.2951,-38.0482 L 70.2017,-38.2182
 L 70.1601,-38.4925 L 70.2211,-38.8263 L 70.2354,-38.8556 L 70.4113,-39.0495 L 70.7237,-39.1575 L 71.2115,-39.1282
 L 71.4615,-38.9837 L 71.5987,-38.7553 L 71.623,-38.3812 L 71.5818,-38.2234 L 71.5169,-38.1071 L 71.4253,-38.0141
 L 71.2993,-37.9412 L 71.1244,-37.891 L 70.871,-37.8731 z
M 71.235,-38.1626 L 71.361,-38.2442 L 71.4315,-38.3661 L 71.4492,-38.5849 L 71.3977,-38.7377 L 71.2482,-38.869
 L 71.056,-38.9121 L 71.056,-38.1231 z
M 53.9121,-25.6865 L 53.5994,-25.73 L 53.2822,-25.8211 L 52.9813,-25.9569 L 52.7032,-26.1346 L 52.4536,-26.3506
 L 52.2462,-26.5887 L 52.0668,-26.8657 L 51.929,-27.1657 L 51.836,-27.4824 L 51.7895,-27.8091 L 51.784,-35.26
 L 51.7885,-35.4035 L 51.833,-35.7306 L 51.9241,-36.0479 L 52.0599,-36.3487 L 52.2376,-36.6268 L 52.4536,-36.8764
 L 52.6917,-37.0838 L 52.9687,-37.2632 L 53.2687,-37.401 L 53.5854,-37.494 L 53.9121,-37.5405 L 112.49,-37.546
 L 112.634,-37.5415 L 112.961,-37.497 L 113.278,-37.4059 L 113.579,-37.2701 L 113.857,-37.0924 L 114.106,-36.8764
 L 114.314,-36.6383 L 114.493,-36.3613 L 114.631,-36.0613 L 114.724,-35.7446 L 114.771,-35.4179 L 114.776,-27.967
 L 114.771,-27.8235 L 114.727,-27.4964 L 114.636,-27.1792 L 114.5,-26.8783 L 114.322,-26.6002 L 114.106,-26.3506
 L 113.868,-26.1433 L 113.591,-25.9638 L 113.291,-25.8261 L 112.975,-25.733 L 112.648,-25.6865 z
M 113.99,-35.219 L 113.99,-35.511 L 112.07,-36.295 L 112.07,-36.029 L 112.638,-35.808 L 112.638,-34.931
 L 112.07,-34.712 L 112.07,-34.449 z
M 112.838,-35.728 L 113.759,-35.381 L 113.797,-35.369 L 113.471,-35.256 L 112.838,-35.009 z
M 109.069,-28.6721 L 109.395,-28.729 L 109.713,-28.8203 L 110.02,-28.945 L 110.311,-29.1017 L 110.585,-29.2886
 L 110.836,-29.5036 L 111.064,-29.7441 L 111.264,-30.0075 L 111.435,-30.2908 L 111.575,-30.5907 L 111.682,-30.9038
 L 111.755,-31.2266 L 111.794,-31.5553 L 111.797,-31.8863 L 111.765,-32.2157 L 111.698,-32.5398 L 111.596,-32.8549
 L 111.462,-33.1574 L 111.296,-33.4438 L 111.101,-33.711 L 110.878,-33.9557 L 110.631,-34.1754 L 110.361,-34.3674
 L 110.073,-34.5296 L 109.768,-34.6601 L 109.452,-34.7574 L 109.127,-34.8204 L 108.797,-34.8485 L 108.466,-34.8412
 L 108.138,-34.7987 L 107.816,-34.7214 L 107.505,-34.6103 L 107.207,-34.4666 L 106.925,-34.2919 L 106.665,-34.0882
 L 106.427,-33.8579 L 106.215,-33.6035 L 106.032,-33.328 L 105.879,-33.0346 L 105.758,-32.7265 L 105.67,-32.4072
 L 105.618,-32.0805 L 105.6,-31.75 L 105.618,-31.4195 L 105.67,-31.0928 L 105.758,-30.7735 L 105.879,-30.4654
 L 106.032,-30.172 L 106.215,-29.8965 L 106.427,-29.6422 L 106.665,-29.4118 L 106.925,-29.2082 L 107.207,-29.0335
 L 107.505,-28.8897 L 107.816,-28.7786 L 108.138,-28.7013 L 108.408,-28.6638 L 108.739,-28.6502 z
M 58.2692,-28.6721 L 58.5952,-28.729 L 58.9133,-28.8203 L 59.2199,-28.945 L 59.5114,-29.1017 L 59.7846,-29.2886
 L 60.0362,-29.5036 L 60.2636,-29.7441 L 60.4639,-30.0076 L 60.6351,-30.2908 L 60.7751,-30.5907 L 60.8823,-30.9039
 L 60.9555,-31.2266 L 60.9939,-31.5554 L 60.997,-31.8863 L 60.9648,-32.2157 L 60.8977,-32.5398 L 60.7964,-32.8549
 L 60.6621,-33.1574 L 60.4963,-33.4438 L 60.3009,-33.711 L 60.0782,-33.9558 L 59.8306,-34.1754 L 59.5611,-34.3674
 L 59.2725,-34.5296 L 58.9684,-34.6601 L 58.6521,-34.7574 L 58.3271,-34.8204 L 57.9974,-34.8485 L 57.6665,-34.8412
 L 57.3383,-34.7987 L 57.0164,-34.7214 L 56.7047,-34.6103 L 56.4066,-34.4666 L 56.1255,-34.2919 L 55.8646,-34.0882
 L 55.6269,-33.8579 L 55.4151,-33.6035 L 55.2317,-33.328 L 55.0787,-33.0346 L 54.9578,-32.7265 L 54.8705,-32.4072
 L 54.8177,-32.0805 L 54.8,-31.75 L 54.8177,-31.4195 L 54.8705,-31.0928 L 54.9578,-30.7735 L 55.0787,-30.4654
 L 55.2317,-30.172 L 55.4151,-29.8965 L 55.6269,-29.6422 L 55.8646,-29.4118 L 56.1255,-29.2082 L 56.4066,-29.0335
 L 56.7047,-28.8897 L 57.0164,-28.7786 L 57.3383,-28.7013 L 57.6083,-28.6638 L 57.9389,-28.6503 z
M 96.3598,-29.4783 L 96.6832,-29.5538 L 96.9923,-29.6751 L 97.2808,-29.8396 L 97.5426,-30.044 L 97.7722,-30.2839
 L 97.9573,-30.5421 L 98.1108,-30.8366 L 98.2204,-31.1501 L 98.2819,-31.4617 L 98.2996,-31.7934 L 98.2717,-32.1098
 L 98.1962,-32.4332 L 98.0749,-32.7424 L 97.9104,-33.0308 L 97.706,-33.2926 L 97.4661,-33.5222 L 97.2079,-33.7073
 L 96.9134,-33.8608 L 96.5999,-33.9704 L 96.2883,-34.0319 L 95.9566,-34.0496 L 95.6402,-34.0217 L 95.3168,-33.9462
 L 95.0076,-33.8249 L 94.7192,-33.6604 L 94.4574,-33.456 L 94.2278,-33.2161 L 94.0427,-32.9579 L 93.8892,-32.6635
 L 93.7796,-32.3499 L 93.7181,-32.0383 L 93.7004,-31.7066 L 93.7283,-31.3902 L 93.8038,-31.0668 L 93.9251,-30.7577
 L 94.0896,-30.4692 L 94.294,-30.2074 L 94.5339,-29.9778 L 94.7921,-29.7927 L 95.0865,-29.6392 L 95.4001,-29.5296
 L 95.7117,-29.4681 L 96.0434,-29.4504 z
M 70.9598,-29.4783 L 71.2832,-29.5538 L 71.5923,-29.6751 L 71.8808,-29.8396 L 72.1318,-30.0343 L 72.3629,-30.2728
 L 72.5573,-30.5421 L 72.7108,-30.8366 L 72.8204,-31.1501 L 72.8836,-31.4761 L 72.8993,-31.8078 L 72.867,-32.1383
 L 72.7874,-32.4607 L 72.6623,-32.7684 L 72.4941,-33.0547 L 72.2865,-33.3139 L 72.0549,-33.5314 L 71.7832,-33.7223
 L 71.4868,-33.8722 L 71.172,-33.9778 L 70.8452,-34.0369 L 70.5277,-34.0489 L 70.1974,-34.0145 L 69.8893,-33.9374
 L 69.5816,-33.8123 L 69.2953,-33.6441 L 69.0467,-33.4463 L 68.8186,-33.2049 L 68.6351,-32.9456 L 68.4892,-32.6635
 L 68.3796,-32.3499 L 68.3164,-32.0239 L 68.3007,-31.6922 L 68.333,-31.3617 L 68.4081,-31.053 L 68.5314,-30.7446
 L 68.6977,-30.4572 L 68.894,-30.2074 L 69.1339,-29.9778 L 69.3921,-29.7927 L 69.6866,-29.6392 L 70.0001,-29.5296
 L 70.3117,-29.4681 L 70.6433,-29.4504 z
M 83.6598,-29.4783 L 83.9832,-29.5538 L 84.2923,-29.6751 L 84.5808,-29.8396 L 84.8426,-30.044 L 85.0722,-30.2839
 L 85.2573,-30.5421 L 85.4108,-30.8366 L 85.5204,-31.1501 L 85.5819,-31.4617 L 85.5996,-31.7934 L 85.5694,-32.1241
 L 85.4919,-32.447 L 85.3686,-32.7554 L 85.2023,-33.0428 L 84.9963,-33.3033 L 84.7549,-33.5314 L 84.4832,-33.7223
 L 84.1868,-33.8722 L 83.872,-33.9778 L 83.5452,-34.0369 L 83.2278,-34.0489 L 82.8974,-34.0145 L 82.5892,-33.9374
 L 82.2816,-33.8123 L 81.9953,-33.6441 L 81.7467,-33.4463 L 81.5186,-33.2049 L 81.3277,-32.9332 L 81.1778,-32.6369
 L 81.0759,-32.336 L 81.0147,-32.0096 L 81.0007,-31.6922 L 81.033,-31.3617 L 81.1081,-31.053 L 81.2314,-30.7446
 L 81.3977,-30.4572 L 81.594,-30.2074 L 81.8339,-29.9778 L 82.0921,-29.7927 L 82.3866,-29.6392 L 82.7001,-29.5296
 L 83.0117,-29.4681 L 83.3433,-29.4504 z
M 115.603,-30.0734 L 115.546,-30.3714 L 115.506,-30.9194 L 115.538,-31.272 L 115.631,-31.5517 L 115.772,-31.7535
 L 115.972,-31.9084 L 116.301,-32.04 L 116.827,-32.1174 L 116.827,-32.1534 L 116.471,-32.375 L 116.091,-32.6924
 L 115.837,-32.9971 L 115.656,-33.3281 L 115.516,-33.7628 L 115.446,-34.3019 L 115.468,-34.8902 L 115.518,-35.1569
 L 115.619,-35.4554 L 115.747,-35.6959 L 115.911,-35.9036 L 116.117,-36.0854 L 116.373,-36.2417 L 116.673,-36.3592
 L 117.023,-36.4328 L 117.461,-36.457 L 117.816,-36.4288 L 118.112,-36.3641 L 118.37,-36.2679 L 118.604,-36.1379
 L 118.813,-35.9742 L 118.999,-35.7767 L 119.152,-35.554 L 119.288,-35.2792 L 119.403,-34.9462 L 119.499,-34.5098
 L 119.563,-33.9476 L 119.602,-32.1534 L 119.96,-32.1534 L 120.238,-32.1647 L 120.639,-32.2354 L 120.91,-32.3461
 L 121.102,-32.487 L 121.258,-32.6826 L 121.374,-32.9451 L 121.444,-33.3156 L 121.442,-33.8732 L 121.357,-34.326
 L 121.23,-34.5953 L 121.059,-34.7822 L 120.805,-34.9292 L 120.434,-35.0214 L 120.536,-36.1664 L 120.564,-36.1618
 L 120.752,-36.1226 L 120.929,-36.0705 L 121.095,-36.0056 L 121.229,-35.9398 L 121.355,-35.8646 L 121.473,-35.78
 L 121.583,-35.6859 L 121.685,-35.5825 L 121.779,-35.4696 L 121.865,-35.3473 L 121.956,-35.1927 L 122.035,-35.0254
 L 122.104,-34.8452 L 122.162,-34.6521 L 122.215,-34.4159 L 122.254,-34.1628 L 122.281,-33.8582 L 122.29,-33.5324
 L 122.271,-33.1008 L 122.207,-32.6781 L 122.109,-32.3318 L 121.986,-32.0513 L 121.839,-31.8158 L 121.664,-31.6113
 L 121.462,-31.438 L 121.235,-31.2963 L 120.969,-31.1814 L 120.659,-31.0983 L 120.286,-31.051 L 117.217,-31.0444
 L 116.869,-31.0236 L 116.46,-30.9002 L 116.321,-30.7618 L 116.249,-30.5341 L 116.286,-30.0734 z
M 118.809,-33.3454 L 118.772,-33.9547 L 118.638,-34.5415 L 118.422,-34.912 L 118.131,-35.1597 L 117.771,-35.2934
 L 117.244,-35.3235 L 116.889,-35.2482 L 116.638,-35.1106 L 116.45,-34.9131 L 116.323,-34.647 L 116.266,-34.2807
 L 116.316,-33.7334 L 116.321,-33.7076 L 116.475,-33.2778 L 116.731,-32.8878 L 117.081,-32.5616 L 117.529,-32.3095
 L 117.999,-32.1753 L 118.834,-32.1534 z
M 115.57,-23.104 L 119.13,-25.337 L 119.13,-28.018 L 115.57,-28.018 L 115.57,-29.182 L 124.146,-29.182
 L 124.146,-25.137 L 124.134,-24.757 L 124.081,-24.2813 L 123.994,-23.8856 L 123.878,-23.5429 L 123.737,-23.2483
 L 123.577,-22.997 L 123.391,-22.7736 L 123.184,-22.5819 L 122.969,-22.4305 L 122.736,-22.3079 L 122.469,-22.2093
 L 122.182,-22.1431 L 121.838,-22.1072 L 121.47,-22.112 L 121.089,-22.1662 L 120.75,-22.2668 L 120.447,-22.4086
 L 120.158,-22.6026 L 119.9,-22.841 L 119.681,-23.1158 L 119.504,-23.4268 L 119.363,-23.7881 L 119.264,-24.204
 L 115.57,-21.763 z
M 121.996,-23.2992 L 122.276,-23.3748 L 122.504,-23.49 L 122.702,-23.6487 L 122.875,-23.8592 L 123.022,-24.1324
 L 123.134,-24.477 L 123.203,-24.9451 L 123.214,-28.018 L 120.05,-28.018 L 120.05,-25.203 L 120.062,-24.9073
 L 120.129,-24.4897 L 120.241,-24.1599 L 120.389,-23.895 L 120.571,-23.6794 L 120.786,-23.5088 L 121.032,-23.3846
 L 121.321,-23.3046 L 121.669,-23.2741 z
M 41.2121,-0.286484 L 40.8994,-0.329987 L 40.5822,-0.421082 L 40.2813,-0.5569 L 40.0032,-0.73465 L 39.7536,-0.950577
 L 39.5462,-1.18872 L 39.3668,-1.46573 L 39.229,-1.7657 L 39.136,-2.08238 L 39.0895,-2.40915 L 39.084,-22.56
 L 39.0885,-22.7035 L 39.133,-23.0306 L 39.2241,-23.3479 L 39.3599,-23.6487 L 39.5376,-23.9268 L 39.7536,-24.1765
 L 39.9917,-24.3838 L 40.2687,-24.5632 L 40.5687,-24.701 L 40.8854,-24.794 L 41.2121,-24.8405 L 48.99,-24.846
 L 49.1335,-24.8415 L 49.4606,-24.797 L 49.7778,-24.7059 L 50.0787,-24.5701 L 50.3568,-24.3924 L 50.6064,-24.1765
 L 50.8137,-23.9383 L 50.9932,-23.6613 L 51.1309,-23.3613 L 51.224,-23.0446 L 51.2705,-22.7179 L 51.276,-2.56702
 L 51.2715,-2.42349 L 51.227,-2.09642 L 51.1359,-1.77917 L 51.0001,-1.47835 L 50.8224,-1.20021 L 50.6064,-0.950577
 L 50.3683,-0.743271 L 50.0913,-0.563782 L 49.7913,-0.426071 L 49.4746,-0.332993 L 49.1479,-0.286484 z
M 50.49,-22.071 L 48.84,-22.055 L 50.49,-23.077 L 50.49,-23.375 L 48.57,-23.375 L 48.57,-23.147
 L 49.849,-23.147 L 50.077,-23.154 L 50.21,-23.16 L 48.57,-22.149 L 48.57,-21.84 L 50.49,-21.84
 z
M 49.6256,-20.2766 L 49.8742,-20.4078 L 50.0054,-20.6234 L 50.042,-20.8896 L 50.0235,-21.0807 L 49.9751,-21.2246
 L 49.9019,-21.3359 L 49.802,-21.4235 L 49.667,-21.4902 L 49.4818,-21.533 L 49.141,-21.5337 L 48.8201,-21.426
 L 48.6462,-21.2406 L 48.63,-21.2084 L 48.5705,-20.8624 L 48.6471,-20.5446 L 48.8148,-20.3592 L 49.12,-20.2519
 z
M 49.0065,-20.5305 L 48.8755,-20.5937 L 48.7827,-20.7128 L 48.7806,-20.7178 L 48.7505,-20.9409 L 48.7986,-21.102
 L 48.8824,-21.191 L 49.0602,-21.2653 L 49.427,-21.2849 L 49.6445,-21.2389 L 49.7796,-21.1481 L 49.8465,-21.0201
 L 49.8597,-20.8214 L 49.8162,-20.6764 L 49.6252,-20.5336 L 49.3655,-20.4945 z
M 50.554,-19.9715 L 50.323,-19.9715 L 50.323,-19.7295 L 50.554,-19.7295 z
M 50.042,-19.9715 L 48.57,-19.9715 L 48.57,-19.7295 L 50.042,-19.7295 z
M 49.1142,-18.2816 L 49.3028,-18.4416 L 49.5416,-19.1355 L 49.6383,-19.1928 L 49.7669,-19.1645 L 49.8424,-19.0318
 L 49.8375,-18.6917 L 49.7582,-18.5559 L 49.659,-18.5058 L 49.686,-18.2878 L 49.8681,-18.3686 L 49.9623,-18.4811
 L 50.0281,-18.6802 L 50.0259,-19.0625 L 49.9599,-19.2545 L 49.8076,-19.3979 L 49.6492,-19.4308 L 49.4383,-19.3589
 L 49.2986,-19.138 L 49.1103,-18.5627 L 48.9854,-18.4982 L 48.8529,-18.5355 L 48.7929,-18.6157 L 48.7603,-18.9783
 L 48.826,-19.1734 L 48.9119,-19.2496 L 48.98,-19.2768 L 48.938,-19.4898 L 48.7782,-19.4214 L 48.6576,-19.2914
 L 48.6015,-19.1509 L 48.5746,-18.7532 L 48.6373,-18.4948 L 48.7919,-18.3123 L 48.9372,-18.2647 z
M 49.5343,-16.8289 L 49.7093,-16.8791 L 49.8353,-16.952 L 49.9269,-17.045 L 49.9918,-17.1613 L 50.033,-17.3191
 L 50.0087,-17.6932 L 49.8715,-17.9216 L 49.6214,-18.0661 L 49.1337,-18.0954 L 48.8213,-17.9874 L 48.6454,-17.7935
 L 48.631,-17.7642 L 48.5701,-17.4304 L 48.6117,-17.1561 L 48.7051,-16.9861 L 48.8471,-16.8729 L 48.897,-16.85
 L 48.954,-17.062 L 48.8117,-17.1851 L 48.7611,-17.3226 L 48.7578,-17.5292 L 48.8138,-17.6712 L 48.9509,-17.7875
 L 49.1488,-17.845 L 49.281,-17.853 L 49.281,-16.811 z
M 49.466,-17.85 L 49.6582,-17.8069 L 49.8077,-17.6756 L 49.8591,-17.5228 L 49.8414,-17.304 L 49.771,-17.1821
 L 49.645,-17.1005 L 49.466,-17.061 z
M 45.5692,-3.27206 L 45.8952,-3.32898 L 46.2133,-3.42032 L 46.5199,-3.54504 L 46.8114,-3.70175 L 47.0846,-3.88864
 L 47.3362,-4.10358 L 47.5636,-4.34413 L 47.7639,-4.60754 L 47.9351,-4.89082 L 48.0751,-5.19073 L 48.1823,-5.50386
 L 48.2555,-5.82663 L 48.2939,-6.15535 L 48.297,-6.48631 L 48.2648,-6.8157 L 48.1977,-7.1398 L 48.0964,-7.45488
 L 47.9621,-7.75739 L 47.7963,-8.04382 L 47.601,-8.31097 L 47.3782,-8.55577 L 47.1306,-8.77542 L 46.8611,-8.96742
 L 46.5725,-9.12959 L 46.2684,-9.26009 L 45.9521,-9.35741 L 45.6271,-9.42044 L 45.2974,-9.44847 L 44.9665,-9.44119
 L 44.6383,-9.39868 L 44.3164,-9.32143 L 44.0047,-9.2103 L 43.7066,-9.06656 L 43.4254,-8.89186 L 43.1646,-8.68819
 L 42.9269,-8.45787 L 42.7151,-8.20351 L 42.5317,-7.92804 L 42.3787,-7.63457 L 42.2578,-7.32646 L 42.1705,-7.00723
 L 42.1177,-6.6805 L 42.1,-6.35001 L 42.1177,-6.01952 L 42.1705,-5.69278 L 42.2578,-5.37355 L 42.3787,-5.06544
 L 42.5317,-4.77197 L 42.7151,-4.49651 L 42.9269,-4.24216 L 43.1646,-4.01183 L 43.4254,-3.80815 L 43.7066,-3.63345
 L 44.0047,-3.48972 L 44.3164,-3.37859 L 44.6383,-3.30133 L 44.9083,-3.26376 L 45.239,-3.25026 z
M 53.9121,-12.9865 L 53.5994,-13.03 L 53.2822,-13.1211 L 52.9813,-13.2569 L 52.7032,-13.4346 L 52.4536,-13.6506
 L 52.2462,-13.8887 L 52.0668,-14.1657 L 51.929,-14.4657 L 51.836,-14.7824 L 51.7895,-15.1091 L 51.784,-22.56
 L 51.7885,-22.7035 L 51.833,-23.0306 L 51.9241,-23.3479 L 52.0599,-23.6487 L 52.2376,-23.9268 L 52.4536,-24.1765
 L 52.6917,-24.3838 L 52.9687,-24.5632 L 53.2687,-24.701 L 53.5854,-24.794 L 53.9121,-24.8405 L 112.49,-24.846
 L 112.634,-24.8415 L 112.961,-24.797 L 113.278,-24.7059 L 113.579,-24.5701 L 113.857,-24.3924 L 114.106,-24.1765
 L 114.314,-23.9383 L 114.493,-23.6613 L 114.631,-23.3613 L 114.724,-23.0446 L 114.771,-22.7179 L 114.776,-15.267
 L 114.771,-15.1235 L 114.727,-14.7964 L 114.636,-14.4792 L 114.5,-14.1783 L 114.322,-13.9002 L 114.106,-13.6506
 L 113.868,-13.4433 L 113.591,-13.2638 L 113.291,-13.1261 L 112.975,-13.033 L 112.648,-12.9865 z
M 112.803,-21.9338 L 112.964,-22.0706 L 113.044,-22.2421 L 113.068,-22.367 L 113.153,-22.174 L 113.293,-22.0532
 L 113.501,-22.0022 L 113.655,-22.019 L 113.77,-22.0699 L 113.86,-22.1548 L 113.932,-22.2875 L 113.98,-22.4972
 L 113.99,-22.676 L 113.99,-23.372 L 112.07,-23.372 L 112.107,-22.2913 L 112.173,-22.1331 L 112.363,-21.9452
 L 112.621,-21.8913 z
M 113.38,-22.2727 L 113.258,-22.3407 L 113.178,-22.4935 L 113.158,-22.6727 L 113.158,-23.116 L 113.784,-23.116
 L 113.764,-22.4881 L 113.689,-22.3343 L 113.568,-22.2683 z
M 112.487,-22.1717 L 112.364,-22.2583 L 112.285,-22.4662 L 112.276,-22.6042 L 112.276,-23.116 L 112.958,-23.116
 L 112.941,-22.4398 L 112.877,-22.2736 L 112.788,-22.1891 L 112.66,-22.1515 z
M 58.2692,-15.9721 L 58.5952,-16.029 L 58.9133,-16.1203 L 59.2199,-16.245 L 59.5114,-16.4017 L 59.7846,-16.5886
 L 60.0362,-16.8036 L 60.2636,-17.0441 L 60.4639,-17.3076 L 60.6351,-17.5908 L 60.7751,-17.8907 L 60.8823,-18.2039
 L 60.9555,-18.5266 L 60.9939,-18.8554 L 60.997,-19.1863 L 60.9648,-19.5157 L 60.8977,-19.8398 L 60.7964,-20.1549
 L 60.6621,-20.4574 L 60.4963,-20.7438 L 60.3009,-21.011 L 60.0782,-21.2558 L 59.8306,-21.4754 L 59.5611,-21.6674
 L 59.2725,-21.8296 L 58.9684,-21.9601 L 58.6521,-22.0574 L 58.3271,-22.1204 L 57.9974,-22.1485 L 57.6665,-22.1412
 L 57.3383,-22.0987 L 57.0164,-22.0214 L 56.7047,-21.9103 L 56.4066,-21.7666 L 56.1255,-21.5919 L 55.8646,-21.3882
 L 55.6269,-21.1579 L 55.4151,-20.9035 L 55.2317,-20.628 L 55.0787,-20.3346 L 54.9578,-20.0265 L 54.8705,-19.7072
 L 54.8177,-19.3805 L 54.8,-19.05 L 54.8177,-18.7195 L 54.8705,-18.3928 L 54.9578,-18.0735 L 55.0787,-17.7654
 L 55.2317,-17.472 L 55.4151,-17.1965 L 55.6269,-16.9422 L 55.8646,-16.7118 L 56.1255,-16.5082 L 56.4066,-16.3335
 L 56.7047,-16.1897 L 57.0164,-16.0786 L 57.3383,-16.0013 L 57.6083,-15.9638 L 57.9389,-15.9503 z
M 109.069,-15.9721 L 109.395,-16.029 L 109.713,-16.1203 L 110.02,-16.245 L 110.311,-16.4017 L 110.585,-16.5886
 L 110.836,-16.8036 L 111.064,-17.0441 L 111.264,-17.3075 L 111.435,-17.5908 L 111.575,-17.8907 L 111.682,-18.2038
 L 111.755,-18.5266 L 111.794,-18.8553 L 111.797,-19.1863 L 111.765,-19.5157 L 111.698,-19.8398 L 111.596,-20.1549
 L 111.462,-20.4574 L 111.296,-20.7438 L 111.101,-21.011 L 110.878,-21.2558 L 110.631,-21.4754 L 110.361,-21.6674
 L 110.073,-21.8296 L 109.768,-21.9601 L 109.452,-22.0574 L 109.127,-22.1204 L 108.797,-22.1485 L 108.466,-22.1412
 L 108.138,-22.0987 L 107.816,-22.0214 L 107.505,-21.9103 L 107.207,-21.7666 L 106.925,-21.5919 L 106.665,-21.3882
 L 106.427,-21.1579 L 106.215,-20.9035 L 106.032,-20.628 L 105.879,-20.3346 L 105.758,-20.0265 L 105.67,-19.7072
 L 105.618,-19.3805 L 105.6,-19.05 L 105.618,-18.7195 L 105.67,-18.3928 L 105.758,-18.0735 L 105.879,-17.7654
 L 106.032,-17.472 L 106.215,-17.1965 L 106.427,-16.9421 L 106.665,-16.7118 L 106.925,-16.5081 L 107.207,-16.3334
 L 107.505,-16.1897 L 107.816,-16.0786 L 108.138,-16.0013 L 108.408,-15.9637 L 108.739,-15.9502 z
M 70.9598,-16.7783 L 71.2694,-16.8496 L 71.5793,-16.9689 L 71.8567,-17.1237 L 72.121,-17.3248 L 72.3536,-17.5618
 L 72.5497,-17.8298 L 72.6992,-18.1101 L 72.8087,-18.4083 L 72.876,-18.7188 L 72.9,-19.05 L 72.876,-19.3812
 L 72.8046,-19.7056 L 72.6872,-20.0162 L 72.5263,-20.3067 L 72.3348,-20.5602 L 72.1101,-20.7848 L 71.8446,-20.9842
 L 71.5662,-21.1372 L 71.2555,-21.2546 L 70.9455,-21.3239 L 70.6144,-21.35 L 70.2974,-21.33 L 69.9861,-21.2666
 L 69.6733,-21.1551 L 69.3921,-21.0073 L 69.1339,-20.8222 L 68.894,-20.5926 L 68.6896,-20.3308 L 68.5314,-20.0554
 L 68.4081,-19.747 L 68.3306,-19.4241 L 68.3004,-19.0934 L 68.3164,-18.7761 L 68.3796,-18.4501 L 68.4892,-18.1366
 L 68.6427,-17.8421 L 68.8371,-17.5728 L 69.0574,-17.344 L 69.3192,-17.1396 L 69.5946,-16.9814 L 69.903,-16.8582
 L 70.2259,-16.7806 L 70.3117,-16.7681 L 70.6289,-16.7502 z
M 83.6598,-16.7783 L 83.9694,-16.8496 L 84.2793,-16.9689 L 84.5567,-17.1237 L 84.821,-17.3248 L 85.0536,-17.5618
 L 85.2496,-17.8298 L 85.3992,-18.1101 L 85.5087,-18.4083 L 85.576,-18.7188 L 85.6,-19.05 L 85.576,-19.3812
 L 85.5046,-19.7056 L 85.3872,-20.0162 L 85.2263,-20.3067 L 85.0253,-20.571 L 84.7882,-20.8036 L 84.5202,-20.9997
 L 84.2267,-21.1551 L 83.9139,-21.2666 L 83.5883,-21.3319 L 83.2566,-21.3496 L 82.9259,-21.3194 L 82.603,-21.2419
 L 82.2946,-21.1186 L 82.0072,-20.9523 L 81.7467,-20.7463 L 81.5186,-20.5049 L 81.3277,-20.2332 L 81.1778,-19.9368
 L 81.0759,-19.636 L 81.0147,-19.3096 L 81.0007,-18.9922 L 81.033,-18.6617 L 81.1126,-18.3393 L 81.2314,-18.0446
 L 81.3977,-17.7572 L 81.594,-17.5074 L 81.8339,-17.2778 L 82.0921,-17.0927 L 82.3733,-16.9449 L 82.6722,-16.8373
 L 82.9831,-16.7719 L 83.0117,-16.7681 L 83.3289,-16.7502 z
M 96.3598,-16.7783 L 96.6694,-16.8496 L 96.9793,-16.9689 L 97.2688,-17.1316 L 97.521,-17.3248 L 97.7536,-17.5618
 L 97.9496,-17.8298 L 98.0992,-18.1101 L 98.2127,-18.4222 L 98.2781,-18.7331 L 98.2999,-19.0645 L 98.2739,-19.3955
 L 98.2046,-19.7056 L 98.0872,-20.0162 L 97.9263,-20.3067 L 97.7253,-20.571 L 97.4882,-20.8036 L 97.2202,-20.9997
 L 96.9267,-21.1551 L 96.6139,-21.2666 L 96.2883,-21.3319 L 95.9566,-21.3496 L 95.6259,-21.3194 L 95.303,-21.2419
 L 94.9946,-21.1186 L 94.7072,-20.9523 L 94.4467,-20.7463 L 94.2186,-20.5049 L 94.0277,-20.2332 L 93.8778,-19.9368
 L 93.7722,-19.622 L 93.7131,-19.2952 L 93.7011,-18.9778 L 93.7355,-18.6475 L 93.8126,-18.3393 L 93.9377,-18.0317
 L 94.1059,-17.7453 L 94.3037,-17.4967 L 94.5451,-17.2686 L 94.8168,-17.0777 L 95.1131,-16.9279 L 95.414,-16.8259
 L 95.7117,-16.7681 L 96.0289,-16.7502 z
M 115.603,-14.4933 L 115.546,-14.7913 L 115.506,-15.3393 L 115.538,-15.692 L 115.631,-15.9716 L 115.772,-16.1734
 L 115.972,-16.3283 L 116.301,-16.4599 L 116.827,-16.5373 L 116.827,-16.5733 L 116.471,-16.7949 L 116.091,-17.1124
 L 115.837,-17.4171 L 115.656,-17.7481 L 115.516,-18.1827 L 115.446,-18.7218 L 115.468,-19.3102 L 115.518,-19.5768
 L 115.619,-19.8753 L 115.747,-20.1158 L 115.911,-20.3235 L 116.117,-20.5053 L 116.373,-20.6616 L 116.673,-20.7791
 L 117.023,-20.8527 L 117.461,-20.8769 L 117.816,-20.8488 L 118.112,-20.7841 L 118.37,-20.6878 L 118.604,-20.5578
 L 118.813,-20.3941 L 118.999,-20.1966 L 119.152,-19.9739 L 119.288,-19.6991 L 119.403,-19.3661 L 119.499,-18.9297
 L 119.563,-18.3675 L 119.602,-16.5733 L 119.96,-16.5733 L 120.238,-16.5846 L 120.639,-16.6554 L 120.91,-16.766
 L 121.102,-16.9069 L 121.258,-17.1025 L 121.374,-17.365 L 121.444,-17.7355 L 121.442,-18.2931 L 121.357,-18.746
 L 121.23,-19.0152 L 121.059,-19.2022 L 120.805,-19.3491 L 120.434,-19.4413 L 120.536,-20.5863 L 120.564,-20.5817
 L 120.752,-20.5425 L 120.929,-20.4904 L 121.095,-20.4256 L 121.229,-20.3598 L 121.355,-20.2845 L 121.473,-20.1999
 L 121.583,-20.1059 L 121.685,-20.0024 L 121.779,-19.8895 L 121.865,-19.7672 L 121.956,-19.6127 L 122.035,-19.4453
 L 122.104,-19.2651 L 122.162,-19.0721 L 122.215,-18.8358 L 122.254,-18.5828 L 122.281,-18.2781 L 122.29,-17.9523
 L 122.271,-17.5207 L 122.207,-17.098 L 122.109,-16.7517 L 121.986,-16.4712 L 121.839,-16.2357 L 121.664,-16.0312
 L 121.462,-15.858 L 121.235,-15.7162 L 120.969,-15.6013 L 120.659,-15.5182 L 120.286,-15.4709 L 117.217,-15.4643
 L 116.869,-15.4435 L 116.46,-15.3201 L 116.321,-15.1817 L 116.249,-14.954 L 116.286,-14.4933 z
M 118.809,-17.7653 L 118.772,-18.3747 L 118.638,-18.9614 L 118.422,-19.332 L 118.131,-19.5796 L 117.771,-19.7133
 L 117.244,-19.7434 L 116.889,-19.6681 L 116.638,-19.5305 L 116.45,-19.333 L 116.323,-19.067 L 116.266,-18.7006
 L 116.316,-18.1533 L 116.321,-18.1275 L 116.475,-17.6978 L 116.731,-17.3077 L 117.081,-16.9815 L 117.529,-16.7294
 L 117.999,-16.5952 L 118.834,-16.5733 z
M 117.221,-8.74799 L 116.882,-8.8597 L 116.586,-9.00821 L 116.318,-9.19713 L 116.078,-9.42645 L 115.861,-9.70445
 L 115.696,-9.99907 L 115.571,-10.3203 L 115.486,-10.6833 L 115.444,-11.1077 L 115.458,-11.6031 L 115.482,-11.8055
 L 115.549,-12.1305 L 115.641,-12.4146 L 115.752,-12.6616 L 115.889,-12.89 L 116.05,-13.0997 L 116.237,-13.2908
 L 116.447,-13.4628 L 116.697,-13.6236 L 116.973,-13.7608 L 117.294,-13.8808 L 117.667,-13.9787 L 118.095,-14.0497
 L 118.611,-14.0894 L 119.182,-14.0873 L 119.667,-14.0466 L 120.091,-13.9735 L 120.46,-13.8736 L 120.778,-13.7516
 L 121.052,-13.6123 L 121.3,-13.4493 L 121.509,-13.2753 L 121.693,-13.0829 L 121.853,-12.8724 L 121.988,-12.6438
 L 122.104,-12.3801 L 122.193,-12.0959 L 122.253,-11.7911 L 122.286,-11.4447 L 122.284,-11.046 L 122.232,-10.613
 L 122.133,-10.2427 L 121.993,-9.91602 L 121.808,-9.61876 L 121.582,-9.35518 L 121.333,-9.14166 L 121.041,-8.96136
 L 120.702,-8.8192 L 120.327,-8.72296 L 120.242,-9.84996 L 120.361,-9.87234 L 120.732,-10.0022 L 121.018,-10.1971
 L 121.228,-10.444 L 121.356,-10.7266 L 121.424,-11.1037 L 121.41,-11.5992 L 121.347,-11.8813 L 121.247,-12.1186
 L 121.122,-12.307 L 120.956,-12.4755 L 120.754,-12.6149 L 120.48,-12.7384 L 120.103,-12.8434 L 119.562,-12.921
 L 118.792,-12.9473 L 118.127,-12.9058 L 117.642,-12.819 L 117.271,-12.7002 L 116.993,-12.5625 L 116.782,-12.4095
 L 116.61,-12.2306 L 116.481,-12.0357 L 116.384,-11.8063 L 116.326,-11.5511 L 116.307,-11.2327 L 116.36,-10.8241
 L 116.489,-10.4906 L 116.687,-10.217 L 116.909,-10.0347 L 117.211,-9.89018 L 117.618,-9.79497 L 117.544,-8.68596
 z
M 123.6,-9.34833 L 123.551,-9.35852 L 123.246,-9.45969 L 122.968,-9.61967 L 122.727,-9.83206 L 122.533,-10.0883
 L 122.395,-10.378 L 122.317,-10.6896 L 122.303,-11.0104 L 122.353,-11.3276 L 122.465,-11.6284 L 122.636,-11.9007
 L 122.857,-12.1334 L 123.12,-12.3172 L 123.415,-12.4448 L 123.729,-12.5109 L 124.051,-12.5129 L 124.366,-12.4507
 L 124.662,-12.3269 L 124.928,-12.1464 L 125.152,-11.9165 L 125.33,-11.6374 L 125.445,-11.3373 L 125.497,-11.0104
 L 125.483,-10.6896 L 125.405,-10.378 L 125.267,-10.0883 L 125.073,-9.83206 L 124.832,-9.61967 L 124.554,-9.45969
 L 124.249,-9.35852 L 123.92,-9.32011 z
M 4.30019,-9.34833 L 4.26079,-9.35637 L 3.95534,-9.45561 L 3.67587,-9.61385 L 3.43364,-9.82472 L 3.2384,-10.0797
 L 3.09802,-10.3686 L 3.01814,-10.6796 L 3.00255,-11.0104 L 3.0528,-11.3276 L 3.16536,-11.6284 L 3.33574,-11.9007
 L 3.5647,-12.1399 L 3.83801,-12.3269 L 4.13434,-12.4507 L 4.44942,-12.5129 L 4.77057,-12.5109 L 5.08485,-12.4448
 L 5.37959,-12.3172 L 5.64293,-12.1334 L 5.86424,-11.9007 L 6.03462,-11.6284 L 6.1472,-11.3276 L 6.19743,-11.0104
 L 6.18332,-10.6896 L 6.10541,-10.378 L 5.96684,-10.0883 L 5.77319,-9.83206 L 5.5323,-9.61967 L 5.25383,-9.45969
 L 4.94902,-9.35852 L 4.6201,-9.32011 z
M 53.9121,-0.286469 L 53.5994,-0.329971 L 53.2822,-0.421066 L 52.9813,-0.556885 L 52.7032,-0.734634 L 52.4536,-0.950562
 L 52.2462,-1.18871 L 52.0668,-1.46571 L 51.929,-1.76569 L 51.836,-2.08237 L 51.7895,-2.40913 L 51.784,-9.86
 L 51.7885,-10.0035 L 51.833,-10.3306 L 51.9241,-10.6478 L 52.0599,-10.9487 L 52.2376,-11.2268 L 52.4536,-11.4764
 L 52.6917,-11.6837 L 52.9687,-11.8632 L 53.2687,-12.0009 L 53.5854,-12.094 L 53.9121,-12.1405 L 112.49,-12.146
 L 112.634,-12.1415 L 112.961,-12.097 L 113.278,-12.0059 L 113.579,-11.8701 L 113.857,-11.6924 L 114.106,-11.4764
 L 114.314,-11.2383 L 114.493,-10.9613 L 114.631,-10.6613 L 114.724,-10.3446 L 114.771,-10.0179 L 114.776,-2.567
 L 114.771,-2.42348 L 114.727,-2.09641 L 114.636,-1.77916 L 114.5,-1.47833 L 114.322,-1.2002 L 114.106,-0.950562
 L 113.868,-0.743256 L 113.591,-0.563766 L 113.291,-0.426056 L 112.975,-0.332977 L 112.648,-0.286469 z
M 112.646,-9.23102 L 112.439,-9.39035 L 112.326,-9.57434 L 112.281,-9.80827 L 112.34,-10.1205 L 112.515,-10.3413
 L 112.811,-10.4769 L 113.266,-10.4778 L 113.555,-10.3474 L 113.722,-10.1357 L 113.774,-9.93852 L 113.761,-9.6711
 L 113.678,-9.48155 L 113.542,-9.34599 L 113.414,-9.28102 L 113.498,-9.03801 L 113.688,-9.14153 L 113.83,-9.2832
 L 113.925,-9.45595 L 113.99,-9.83046 L 113.94,-10.1869 L 113.804,-10.4425 L 113.586,-10.6299 L 113.283,-10.739
 L 112.95,-10.7575 L 112.661,-10.7068 L 112.443,-10.6056 L 112.274,-10.458 L 112.159,-10.2787 L 112.128,-10.2037
 L 112.07,-9.82137 L 112.111,-9.53856 L 112.211,-9.31612 L 112.355,-9.14865 L 112.546,-9.02101 z
M 58.2692,-3.27206 L 58.5952,-3.32898 L 58.9133,-3.42032 L 59.2199,-3.54504 L 59.5114,-3.70175 L 59.7846,-3.88864
 L 60.0362,-4.10358 L 60.2636,-4.34413 L 60.4639,-4.60754 L 60.6351,-4.89082 L 60.7751,-5.19073 L 60.8823,-5.50386
 L 60.9555,-5.82663 L 60.9939,-6.15535 L 60.997,-6.48631 L 60.9648,-6.8157 L 60.8977,-7.1398 L 60.7964,-7.45488
 L 60.6621,-7.75739 L 60.4963,-8.04382 L 60.3009,-8.31097 L 60.0782,-8.55577 L 59.8306,-8.77542 L 59.5611,-8.96742
 L 59.2725,-9.12959 L 58.9684,-9.26009 L 58.6521,-9.35741 L 58.3271,-9.42044 L 57.9974,-9.44847 L 57.6665,-9.44119
 L 57.3383,-9.39868 L 57.0164,-9.32143 L 56.7047,-9.2103 L 56.4066,-9.06656 L 56.1255,-8.89186 L 55.8646,-8.68819
 L 55.6269,-8.45787 L 55.4151,-8.20351 L 55.2317,-7.92804 L 55.0787,-7.63457 L 54.9578,-7.32646 L 54.8705,-7.00723
 L 54.8177,-6.6805 L 54.8,-6.35001 L 54.8177,-6.01952 L 54.8705,-5.69278 L 54.9578,-5.37355 L 55.0787,-5.06544
 L 55.2317,-4.77197 L 55.4151,-4.49651 L 55.6269,-4.24216 L 55.8646,-4.01183 L 56.1255,-3.80815 L 56.4066,-3.63345
 L 56.7047,-3.48972 L 57.0164,-3.37859 L 57.3383,-3.30133 L 57.6083,-3.26376 L 57.9389,-3.25026 z
M 109.069,-3.27205 L 109.395,-3.32896 L 109.713,-3.4203 L 110.02,-3.54503 L 110.311,-3.70174 L 110.585,-3.88863
 L 110.836,-4.10356 L 111.064,-4.34412 L 111.264,-4.60753 L 111.435,-4.89081 L 111.575,-5.19072 L 111.682,-5.50385
 L 111.755,-5.82661 L 111.794,-6.15533 L 111.797,-6.4863 L 111.765,-6.81569 L 111.698,-7.13979 L 111.596,-7.45486
 L 111.462,-7.75737 L 111.296,-8.04381 L 111.101,-8.31096 L 110.878,-8.55576 L 110.631,-8.77541 L 110.361,-8.96741
 L 110.073,-9.12958 L 109.768,-9.26007 L 109.452,-9.35739 L 109.127,-9.42043 L 108.797,-9.44846 L 108.466,-9.44118
 L 108.138,-9.39867 L 107.816,-9.32141 L 107.505,-9.21028 L 107.207,-9.06654 L 106.925,-8.89185 L 106.665,-8.68817
 L 106.427,-8.45786 L 106.215,-8.20349 L 106.032,-7.92802 L 105.879,-7.63455 L 105.758,-7.32645 L 105.67,-7.00722
 L 105.618,-6.68048 L 105.6,-6.34999 L 105.618,-6.0195 L 105.67,-5.69276 L 105.758,-5.37354 L 105.879,-5.06543
 L 106.032,-4.77196 L 106.215,-4.49649 L 106.427,-4.24214 L 106.665,-4.01181 L 106.925,-3.80814 L 107.207,-3.63344
 L 107.505,-3.4897 L 107.816,-3.37857 L 108.138,-3.30132 L 108.408,-3.26375 L 108.739,-3.25024 z
M 96.3598,-4.07832 L 96.6694,-4.14957 L 96.9662,-4.26279 L 97.2567,-4.42369 L 97.5101,-4.61523 L 97.7442,-4.85078
 L 97.9419,-5.1176 L 98.0992,-5.41011 L 98.2127,-5.72221 L 98.2781,-6.0331 L 98.2999,-6.36446 L 98.2739,-6.69553
 L 98.2046,-7.00555 L 98.0872,-7.31621 L 97.9263,-7.60672 L 97.7348,-7.86015 L 97.5101,-8.08479 L 97.2446,-8.28418
 L 96.9662,-8.43723 L 96.6555,-8.55461 L 96.3312,-8.62604 L 96,-8.65001 L 95.6688,-8.62604 L 95.3445,-8.55461
 L 95.0338,-8.43723 L 94.7433,-8.27632 L 94.4898,-8.08479 L 94.2558,-7.84923 L 94.058,-7.58241 L 93.9008,-7.2899
 L 93.7873,-6.9778 L 93.7219,-6.66693 L 93.7,-6.33556 L 93.7261,-6.00449 L 93.7954,-5.69446 L 93.9128,-5.3838
 L 94.0658,-5.10542 L 94.2558,-4.85078 L 94.4898,-4.61523 L 94.7554,-4.41583 L 95.0338,-4.26279 L 95.3445,-4.1454
 L 95.6688,-4.07399 L 95.7117,-4.06815 L 96.0289,-4.05019 z
M 83.6598,-4.07832 L 83.9694,-4.14957 L 84.2662,-4.26279 L 84.5567,-4.42369 L 84.821,-4.62476 L 85.0442,-4.85078
 L 85.2419,-5.1176 L 85.3992,-5.41011 L 85.5087,-5.70833 L 85.576,-6.01878 L 85.6,-6.35001 L 85.576,-6.68123
 L 85.5046,-7.00555 L 85.3872,-7.31621 L 85.2263,-7.60672 L 85.0348,-7.86015 L 84.8101,-8.08479 L 84.5446,-8.28418
 L 84.2662,-8.43723 L 83.9555,-8.55461 L 83.6312,-8.62604 L 83.3,-8.65001 L 82.9688,-8.62604 L 82.6445,-8.55461
 L 82.3338,-8.43723 L 82.0433,-8.27632 L 81.7898,-8.08479 L 81.5558,-7.84923 L 81.358,-7.58241 L 81.2067,-7.30307
 L 81.0954,-7.00555 L 81.0261,-6.69553 L 81,-6.36446 L 81.0219,-6.0331 L 81.0873,-5.72221 L 81.1949,-5.42332
 L 81.3503,-5.12984 L 81.5464,-4.86179 L 81.7682,-4.63434 L 82.0312,-4.43163 L 82.3207,-4.26891 L 82.6306,-4.14957
 L 82.9402,-4.07832 L 83.0117,-4.06815 L 83.3289,-4.05019 z
M 70.9598,-4.07832 L 71.2694,-4.14957 L 71.5662,-4.26279 L 71.8567,-4.42369 L 72.121,-4.62476 L 72.3442,-4.85078
 L 72.5419,-5.1176 L 72.6992,-5.41011 L 72.8087,-5.70833 L 72.876,-6.01878 L 72.9,-6.35001 L 72.876,-6.68123
 L 72.8046,-7.00555 L 72.6872,-7.31621 L 72.5263,-7.60672 L 72.3348,-7.86015 L 72.1101,-8.08479 L 71.8446,-8.28418
 L 71.5662,-8.43723 L 71.2555,-8.55461 L 70.9312,-8.62604 L 70.6,-8.65001 L 70.2688,-8.62604 L 69.9444,-8.55461
 L 69.6338,-8.43723 L 69.3554,-8.28418 L 69.0898,-8.08479 L 68.8558,-7.84923 L 68.658,-7.58241 L 68.5067,-7.30307
 L 68.3954,-7.00555 L 68.3261,-6.69553 L 68.3,-6.36446 L 68.3219,-6.0331 L 68.3913,-5.70833 L 68.5067,-5.39694
 L 68.6658,-5.10542 L 68.8558,-4.85078 L 69.0898,-4.61523 L 69.3554,-4.41583 L 69.6338,-4.26279 L 69.9444,-4.1454
 L 70.2545,-4.07611 L 70.3117,-4.06815 L 70.6289,-4.05019 z
M 115.57,-3.52821 L 118.58,-5.77422 L 117.916,-6.59122 L 115.57,-6.59122 L 115.57,-7.68822 L 124.594,-7.68822
 L 124.594,-6.59122 L 118.963,-6.59122 L 122.162,-3.67021 L 122.162,-2.38422 L 119.329,-5.07321 L 115.57,-2.24321
 z
" stroke="black" fill="lightgray" stroke-width="0.5"/></svg>
